<?xml version="1.0" encoding="UTF-8" standalone="no"?><!DOCTYPE svg PUBLIC "-//W3C//DTD SVG 1.1//EN" "http://www.w3.org/Graphics/SVG/1.1/DTD/svg11.dtd"><svg width="100%" height="100%" viewBox="0 0 450 155" version="1.1" xmlns="http://www.w3.org/2000/svg" xmlns:xlink="http://www.w3.org/1999/xlink" xml:space="preserve" style="fill-rule:evenodd;clip-rule:evenodd;stroke-linejoin:round;stroke-miterlimit:1.41421;"><g><path d="M36.832,38.713c0,-9.137 2.132,-15.73 6.397,-19.781c4.264,-4.05 11.183,-6.075 20.757,-6.075c6.701,0 12.097,1.884 16.188,5.652c4.09,3.767 7.049,7.906 8.877,15.63l-4.439,0.053c-1.827,-6.311 -4.46,-10.738 -7.898,-13.281c-3.438,-2.544 -7.68,-3.815 -12.728,-3.815c-3.481,0 -6.419,0.235 -8.812,0.706c-2.394,0.471 -4.787,1.39 -7.18,2.755c-2.394,1.366 -4.2,3.556 -5.418,6.57c-1.218,3.014 -1.828,6.876 -1.828,11.586c0,4.144 1.763,7.818 5.287,11.02c3.525,3.203 7.812,5.934 12.859,8.195c5.048,2.26 10.118,4.568 15.209,6.923c5.092,2.355 9.4,5.369 12.924,9.042c3.525,3.674 5.288,7.912 5.288,12.716c0,9.419 -2.154,16.437 -6.463,21.052c-4.308,4.615 -11.684,6.923 -22.127,6.923c-8.529,0 -16.957,-0.971 -22.522,-3.291c-9.709,-4.048 -10.642,-20.283 -7.333,-28.755l4.26,8.116c-0.979,5.667 -2.531,12.601 7.432,17.203c4.629,2.139 10.678,2.488 18.163,2.488c8.355,0 14.556,-1.742 18.603,-5.227c4.047,-3.485 6.07,-9.655 6.07,-18.509c0,-4.144 -1.762,-7.818 -5.287,-11.02c-3.525,-3.203 -7.833,-5.934 -12.924,-8.195c-5.092,-2.261 -10.161,-4.568 -15.209,-6.923c-5.048,-2.355 -9.334,-5.369 -12.859,-9.042c-3.525,-3.674 -5.287,-7.913 -5.287,-12.716Z" style="fill-rule:nonzero;"/><path d="M224.69,31.224l-32.637,83.36l-32.637,-83.36l4.178,0l28.459,72.481l28.459,-72.481l4.178,0Z" style="fill-rule:nonzero;"/><path d="M160.776,114.584l-32.637,-83.36l-32.637,83.36l4.178,0l28.459,-72.48l28.459,72.48l4.178,0Z" style="fill-rule:nonzero;"/><path d="M288.604,114.584l-32.637,-83.36l-32.637,83.36l4.177,0l28.46,-72.48l28.459,72.48l4.178,0Z" style="fill-rule:nonzero;"/><path d="M344.271,57.088l0.131,-14.702c-3.829,-5.557 -10.705,-8.336 -20.627,-8.336c-4.351,0 -8.007,0.495 -10.966,1.484c-2.959,0.989 -5.678,2.825 -8.159,5.51c-2.48,2.684 -4.33,6.593 -5.548,11.727c-1.219,5.133 -1.828,11.609 -1.828,19.427c0,7.818 0.609,14.293 1.828,19.427c1.218,5.133 3.068,9.042 5.548,11.727c2.481,2.684 5.2,4.521 8.159,5.51c2.959,0.989 6.615,1.483 10.966,1.483c9.835,0 16.667,-2.731 20.496,-8.194l0,-25.008l3.917,0l0,37.3c0,8.064 0.027,26.986 0.027,26.986l-3.944,-6.476c0,0 0,-14.152 0,-24.608l0,-2.119c-4.699,4.239 -11.531,6.358 -20.496,6.358c-10.879,0 -18.668,-3.344 -23.368,-10.031c-4.699,-6.688 -7.049,-17.473 -7.049,-32.355c0,-14.882 2.35,-25.667 7.049,-32.355c4.7,-6.688 12.489,-10.031 23.368,-10.031c12.62,0 19.914,4.474 24.44,13.422l0,13.854l-3.944,0Z" style="fill-rule:nonzero;"/><path d="M415.159,104.835c-4.787,6.499 -12.62,9.749 -23.499,9.749c-10.879,0 -18.668,-3.344 -23.368,-10.031c-4.7,-6.688 -7.049,-17.473 -7.049,-32.355c0,-14.882 2.349,-25.667 7.049,-32.355c4.7,-6.688 12.489,-10.031 23.368,-10.031c12.62,0 21.192,4.474 25.718,13.422c3.284,21.816 -10.461,32.344 -36.819,28.31l7.463,-3.925c11.092,1.651 31.37,-2.007 24.265,-25.233c-3.83,-5.557 -10.705,-8.336 -20.627,-8.336c-4.351,0 -8.007,0.495 -10.966,1.484c-2.959,0.989 -5.679,2.825 -8.159,5.51c-2.48,2.684 -4.33,6.593 -5.548,11.727c-1.219,5.133 -1.828,11.609 -1.828,19.427c0,7.818 0.609,14.293 1.828,19.427c1.218,5.133 3.068,9.042 5.548,11.727c2.48,2.684 5.2,4.521 8.159,5.51c2.959,0.989 6.615,1.483 10.966,1.483c9.922,0 16.797,-2.778 20.627,-8.336l2.872,2.826Z" style="fill-rule:nonzero;"/></g></svg>